<?xml version="1.0" encoding="UTF-8"?>
<svg xmlns="http://www.w3.org/2000/svg" viewBox="0 0 1200 260" width="1200" height="260">
  <defs>
    <linearGradient id="g-bg" x1="0" x2="1" y1="0" y2="1">
      <stop offset="0" stop-color="#0a2e22"/>
      <stop offset="1" stop-color="#113c2d"/>
    </linearGradient>
    <linearGradient id="g-gold" x1="0" x2="0" y1="0" y2="1">
      <stop offset="0" stop-color="#f2d574"/>
      <stop offset="1" stop-color="#d4af37"/>
    </linearGradient>
    <filter id="soft" x="-50%" y="-50%" width="200%" height="200%">
      <feGaussianBlur in="SourceGraphic" stdDeviation="2" result="b"/>
      <feBlend in="SourceGraphic" in2="b" mode="screen"/>
    </filter>
    <style><![CDATA[
      .title { font: 900 56px/1.1 'Segoe UI',system-ui,Arial; fill: url(#g-gold); filter:url(#soft); letter-spacing: .5px; }
      .ver   { font: 700 16px/1 'Segoe UI',system-ui,Arial; fill: #f3f3f3; opacity:.9 }
      .chip  { fill:#0f1513; stroke:#d4af37; stroke-width:1.2; opacity:.9 }
      .smoke {{ opacity:.4; animation: s 9s ease-in-out infinite; }}
      @keyframes s {{
        0% {{ transform: translate(0,0) scale(1);   opacity:.25 }}
        50%{{ transform: translate(30px,-10px) scale(1.06); opacity:.35 }}
        100%{{ transform: translate(0,-20px) scale(1.1);  opacity:.22 }}
      }}
    ]]></style>
  </defs>
  <rect width="1200" height="260" rx="18" fill="url(#g-bg)"/>
  <g transform="translate(32,50)">
    <g transform="translate(0,120)" class="smoke">
      <ellipse cx="120" cy="52" rx="160" ry="52" fill="#ffffff" opacity=".06"/>
      <ellipse cx="420" cy="62" rx="210" ry="66" fill="#ffffff" opacity=".07"/>
      <ellipse cx="720" cy="54" rx="170" ry="50" fill="#ffffff" opacity=".06"/>
      <ellipse cx="980" cy="70" rx="260" ry="72" fill="#ffffff" opacity=".06"/>
    </g>
    <g transform="translate(140,0)">
      <text class="title">AEGIS</text>
      <rect x="2" y="78" rx="10" width="275" height="28" class="chip"/>
      <text class="ver" x="16" y="98">Grepolis Remaster • v1.0.0 • Bottle Green × Gold</text>
    </g>
    <g transform="translate(0,4)">
      <rect x="0" y="0" width="100" height="100" rx="18" fill="url(#g-gold)"/>
      <rect x="14" y="14" width="72" height="72" rx="12" fill="#0b1d13"/>
      <circle cx="50" cy="50" r="20" fill="url(#g-gold)">
        <animate attributeName="r" values="20;22;20" dur="2.2s" repeatCount="indefinite"/>
      </circle>
    </g>
  </g>
  <!-- Ships left/right -->
  <g transform="translate(20,150)">
    <path d="M0 24 Q40 0 90 10 L86 24 Z" fill="#c8a357"/>
    <path d="M12 8 L12 2 L52 6 L52 12 Z" fill="#e5c66a"/>
    <circle cx="18" cy="16" r="2" fill="#2b1b0a"/>
  </g>
  <g transform="translate(1080,150) scale(-1,1)">
    <path d="M0 24 Q40 0 90 10 L86 24 Z" fill="#c8a357"/>
    <path d="M12 8 L12 2 L52 6 L52 12 Z" fill="#e5c66a"/>
    <circle cx="18" cy="16" r="2" fill="#2b1b0a"/>
  </g>
</svg>
