<svg xmlns="http://www.w3.org/2000/svg" width="1600" height="360" viewBox="0 0 1600 360">
  <defs>
    <linearGradient id="bg" x1="0" x2="0" y1="0" y2="1">
      <stop offset="0%" stop-color="#0a2e22"/>
      <stop offset="100%" stop-color="#113c2d"/>
    </linearGradient>
    <linearGradient id="gold" x1="0" x2="1" y1="0" y2="1">
      <stop offset="0%" stop-color="#d4af37"/>
      <stop offset="100%" stop-color="#f2d574"/>
    </linearGradient>
    <filter id="glow" x="-50%" y="-50%" width="200%" height="200%">
      <feGaussianBlur stdDeviation="6" result="b"/>
      <feMerge><feMergeNode in="b"/><feMergeNode in="SourceGraphic"/></feMerge>
    </filter>
  </defs>
  <rect width="1600" height="360" fill="url(#bg)"/>
  <g filter="url(#glow)">
    <text x="800" y="190" text-anchor="middle" font-family="Segoe UI,system-ui,Arial" font-size="84" font-weight="900" fill="url(#gold)">AEGIS — GREPOLIS REMASTER</text>
    <text x="800" y="235" text-anchor="middle" font-family="Segoe UI,system-ui,Arial" font-size="22" fill="#e9e1c5" opacity=".9">Butelkowa zieleń • Złoto • Konfigurator • Animacje • AssetMap</text>
  </g>
  <!-- statki (L/R) -->
  <g opacity=".9">
    <path d="M120 300c50-40 90-60 140-60 46 0 86 16 128 46-12 2-24 3-38 3-64 0-122-18-230 11Z" fill="#0f1d16"/>
    <path d="M1340 300c-50-40-90-60-140-60-46 0-86 16-128 46 12 2 24 3 38 3 64 0 122-18 230 11Z" fill="#0f1d16"/>
    <circle cx="180" cy="260" r="7" fill="#d4af37"/>
    <circle cx="1420" cy="260" r="7" fill="#d4af37"/>
  </g>
</svg>